<svg width="1024" height="1024" viewBox="0 0 1024 1024" fill="none" xmlns="http://www.w3.org/2000/svg">
<rect width="1024" height="1024" rx="100" fill="white"/>
<path d="M610.5 500.5L512.5 601L422 512L410 475.5L429 436L470.5 421L512.5 436L561 421L603 446L610.5 500.5Z" fill="#E85F5F" stroke="black"/>
<path d="M896.433 490.71L823.405 439.989L866.712 362.325C871.43 353.861 872.565 344.066 869.914 334.745C867.262 325.424 861.143 317.691 852.681 312.981L748.881 255.112V208.569C748.881 188.557 732.601 172.275 712.59 172.275H600.335L502.324 117.623C493.857 112.898 484.062 111.742 474.729 114.399C465.408 117.048 457.667 123.175 452.94 131.654L432.438 168.441L397.877 144.416C389.927 138.872 380.293 136.768 370.75 138.479C361.192 140.191 352.882 145.529 347.355 153.501L334.319 172.275H311.445C291.433 172.275 275.153 188.557 275.153 208.569V257.453L118.511 482.945C112.969 490.907 110.866 500.547 112.584 510.092C114.301 519.635 119.639 527.932 127.601 533.457L200.627 584.185L157.332 661.832C152.604 670.289 151.457 680.083 154.096 689.402C156.742 698.738 162.871 706.483 171.356 711.213L275.148 769.09V815.611C275.148 835.622 291.428 851.902 311.44 851.902H423.689L521.711 906.544C527.292 909.661 533.354 911.142 539.335 911.142C552.066 911.142 564.447 904.435 571.092 892.542L591.589 855.788L626.153 879.791C632.441 884.155 639.649 886.251 646.789 886.251C658.289 886.251 669.619 880.819 676.679 870.694L689.735 851.902H712.587C732.599 851.902 748.879 835.622 748.879 815.611V766.737L905.525 541.22C916.94 524.798 912.865 502.143 896.433 490.71ZM842.986 330.381C846.8 332.507 849.561 335.99 850.756 340.193C851.949 344.395 851.436 348.814 849.315 352.628L806.966 428.572L748.879 388.227V277.917L842.986 330.381ZM470.337 141.352C472.473 137.52 475.969 134.754 480.176 133.557C484.379 132.364 488.795 132.877 492.617 135.013L559.441 172.275H453.089L470.337 141.352ZM363.714 164.856C366.209 161.261 369.958 158.854 374.268 158.079C378.57 157.308 382.909 158.254 386.502 160.761L403.08 172.273H358.563L363.714 164.856ZM132.187 506.559C131.413 502.257 132.361 497.91 134.866 494.313L275.151 292.365V611.701L138.961 517.095C135.366 514.603 132.961 510.861 132.187 506.559ZM181.056 693.818C177.222 691.68 174.453 688.182 173.258 683.969C172.066 679.77 172.583 675.36 174.72 671.541L217.063 595.603L275.148 635.952V746.285L181.056 693.818ZM553.702 882.835C549.296 890.72 539.31 893.561 531.418 889.152L464.596 851.902H570.948L553.702 882.835ZM660.333 859.316C655.164 866.733 644.924 868.577 637.513 863.431L620.914 851.902H665.481L660.333 859.316ZM728.964 815.611C728.964 824.641 721.62 831.985 712.59 831.985H311.442C302.412 831.985 295.068 824.641 295.068 815.611V208.569C295.068 199.539 302.412 192.192 311.442 192.192H712.59C721.62 192.192 728.964 199.539 728.964 208.569V815.611ZM889.171 529.854L748.879 731.825V412.479L885.063 507.064C892.477 512.223 894.322 522.445 889.171 529.854Z" fill="black"/>
<path d="M601.232 431.686C588.48 418.932 571.523 411.911 553.486 411.911C538.269 411.911 523.819 416.91 512.016 426.132C500.21 416.91 485.76 411.911 470.544 411.911C452.507 411.911 435.55 418.932 422.798 431.686C396.47 458.011 396.47 500.848 422.798 527.173L504.973 609.351C506.84 611.218 509.374 612.268 512.013 612.268C514.652 612.268 517.187 611.218 519.054 609.351L601.232 527.173C627.559 500.848 627.559 458.011 601.232 431.686ZM587.15 513.092L512.013 588.226L436.879 513.092C418.319 494.529 418.319 464.33 436.879 445.768C445.869 436.777 457.824 431.826 470.541 431.826C483.256 431.826 495.211 436.775 504.194 445.758L504.96 446.527C506.828 448.399 509.362 449.452 512.006 449.455H512.013C514.655 449.455 517.187 448.404 519.054 446.537L519.823 445.768C528.816 436.777 540.771 431.826 553.486 431.826C566.203 431.826 578.158 436.775 587.148 445.768C605.71 464.33 605.71 494.529 587.15 513.092Z" fill="black"/>
</svg>
